<svg xmlns="http://www.w3.org/2000/svg" viewBox="0 0 21 23">
  <defs>
    <style>
      .cls-1 {
        fill: #bcbccb;
      }

      .cls-2 {
        fill: #ffc06a;
        stroke: #fff;
        stroke-width: 2px;
      }

      .cls-3 {
        stroke: none;
      }

      .cls-4 {
        fill: none;
      }
    </style>
  </defs>
  <g id="icon_notification" transform="translate(-114 -125)">
    <path id="Notification_Icon" data-name="Notification Icon" class="cls-1" d="M-1371,81h4a2.006,2.006,0,0,1-2,2A2.006,2.006,0,0,1-1371,81Zm-5-1a.945.945,0,0,1-1-1,.945.945,0,0,1,1-1h.5a4.354,4.354,0,0,0,1.5-3V72a4.952,4.952,0,0,1,5-5,4.951,4.951,0,0,1,5,5v3a4.351,4.351,0,0,0,1.5,3h.5a.945.945,0,0,1,1,1,.945.945,0,0,1-1,1Z" transform="translate(1491 65)"/>
    <g id="Notification_Badge" data-name="Notification Badge" class="cls-2" transform="translate(125 127)">
      <circle class="cls-3" cx="4" cy="4" r="4"/>
      <circle class="cls-4" cx="4" cy="4" r="5"/>
    </g>
  </g>
</svg>
